<svg xmlns="http://www.w3.org/2000/svg" width="560" height="560">
<path d="M 234 260 L 217 270 L 217 260 L 234 250 z" stroke-linejoin="round" stroke="black" stroke-width=".5" fill="Rgb(56, 70, 138, 255)" fill-opacity="1" /><path d="M 182 250 L 217 270 L 217 260 L 182 240 z" stroke-linejoin="round" stroke="black" stroke-width=".5" fill="Rgb(103, 122, 219, 255)" fill-opacity="1" /><path d="M 200 230 L 234 250 L 217 260 L 182 240 z" stroke-linejoin="round" stroke="black" stroke-width=".5" fill="Rgb(166, 177, 235, 255)" fill-opacity="1" />
<path d="M 217 270 L 208 275 L 208 265 L 217 260 z" stroke-linejoin="round" stroke="black" stroke-width=".5" fill="Rgb(99, 118, 33, 255)" fill-opacity="1" /><path d="M 174 255 L 208 275 L 208 265 L 174 245 z" stroke-linejoin="round" stroke="black" stroke-width=".5" fill="Rgb(164, 192, 67, 255)" fill-opacity="1" /><path d="M 182 240 L 217 260 L 208 265 L 174 245 z" stroke-linejoin="round" stroke="black" stroke-width=".5" fill="Rgb(202, 220, 140, 255)" fill-opacity="1" />
<path d="M 234 250 L 208 265 L 208 255 L 234 240 z" stroke-linejoin="round" stroke="black" stroke-width=".5" fill="Rgb(58, 124, 53, 255)" fill-opacity="1" /><path d="M 174 245 L 208 265 L 208 255 L 174 235 z" stroke-linejoin="round" stroke="black" stroke-width=".5" fill="Rgb(105, 201, 98, 255)" fill-opacity="1" /><path d="M 200 220 L 234 240 L 208 255 L 174 235 z" stroke-linejoin="round" stroke="black" stroke-width=".5" fill="Rgb(165, 225, 160, 255)" fill-opacity="1" />
<path d="M 208 275 L 200 280 L 200 260 L 208 255 z" stroke-linejoin="round" stroke="black" stroke-width=".5" fill="Rgb(103, 60, 135, 255)" fill-opacity="1" /><path d="M 165 260 L 200 280 L 200 260 L 165 240 z" stroke-linejoin="round" stroke="black" stroke-width=".5" fill="Rgb(169, 108, 215, 255)" fill-opacity="1" /><path d="M 174 235 L 208 255 L 200 260 L 165 240 z" stroke-linejoin="round" stroke="black" stroke-width=".5" fill="Rgb(205, 168, 233, 255)" fill-opacity="1" />
</svg>
